<?xml version="1.0" encoding="UTF-8"?>
<!DOCTYPE svg PUBLIC "-//W3C//DTD SVG 1.1//EN" "http://www.w3.org/Graphics/SVG/1.1/DTD/svg11.dtd">
<!-- Creator: CorelDRAW -->
<svg xmlns="http://www.w3.org/2000/svg" xml:space="preserve" width="49.6473mm" height="6.4019mm" version="1.1" style="shape-rendering:geometricPrecision; text-rendering:geometricPrecision; image-rendering:optimizeQuality; fill-rule:evenodd; clip-rule:evenodd"
viewBox="0 0 332.16 42.83"
 xmlns:xlink="http://www.w3.org/1999/xlink"
 xmlns:xodm="http://www.corel.com/coreldraw/odm/2003">
 <defs>
  <style type="text/css">
   <![CDATA[
    .fil1 {fill:#FEFEFE;fill-rule:nonzero}
    .fil0 {fill:#FEFEFE;fill-rule:nonzero}
   ]]>
  </style>
 </defs>
 <g id="Слой_x0020_1">
  <metadata id="CorelCorpID_0Corel-Layer"/>
  <path class="fil0" d="M324.57 0.67l-16.6 19.77 -16.6 -19.77 -6.92 0 0 41.49 4.15 0c1.84,0 2.77,-0.92 2.77,-2.77l0 -30.14 16.6 19.77 16.6 -19.77 0 30.14c0,1.84 0.92,2.77 2.77,2.77l4.15 0 0 -41.49 -6.92 0z"/>
  <path class="fil0" d="M274.78 36.63l-29.74 0 0 -12.45 29.74 0 0 -5.53 -29.74 0 0 -12.45 29.04 0c1.84,0 2.77,-0.92 2.77,-2.77l0 -2.77 -38.73 0 0 41.49 39.42 0 0 -2.77c0,-1.84 -0.92,-2.77 -2.77,-2.77z"/>
  <path class="fil0" d="M190.07 0.67l0 2.77c0,1.84 0.92,2.77 2.77,2.77l15.21 0 0 35.96 6.92 0 0 -35.96 15.21 0c1.84,0 2.77,-0.92 2.77,-2.77l0 -2.77 -42.88 0z"/>
  <path class="fil0" d="M174.28 18.65l-16.6 0c-4.15,0 -6.22,-2.07 -6.22,-6.22 0,-4.15 2.07,-6.22 6.22,-6.22l24.2 0c1.84,0 2.77,-0.92 2.77,-2.77l0 -2.77 -28.35 0c-7.84,0 -11.76,3.92 -11.76,11.76 0,7.84 3.92,11.76 11.76,11.76l16.6 0c4.15,0 6.22,2.07 6.22,6.22 0,4.15 -2.07,6.22 -6.22,6.22l-24.9 0c-1.84,0 -2.77,0.92 -2.77,2.77l0 2.77 29.04 0c7.84,0 11.76,-3.92 11.76,-11.76 0,-7.84 -3.92,-11.76 -11.76,-11.76z"/>
  <path class="fil0" d="M135.55 0.67c-1.84,0 -3.4,0.92 -4.78,2.77l-12.39 17 -12.39 -17c-1.38,-1.84 -2.94,-2.77 -4.78,-2.77l-4.96 0 18.67 25.59 0 15.91 6.92 0 0 -15.91 18.67 -25.59 -4.96 0z"/>
  <path class="fil0" d="M80.46 18.65l-16.6 0c-4.15,0 -6.22,-2.07 -6.22,-6.22 0,-4.15 2.07,-6.22 6.22,-6.22l24.2 0c1.84,0 2.77,-0.92 2.77,-2.77l0 -2.77 -28.35 0c-7.84,0 -11.76,3.92 -11.76,11.76 0,7.84 3.92,11.76 11.76,11.76l16.6 0c4.15,0 6.22,2.07 6.22,6.22 0,4.15 -2.07,6.22 -6.22,6.22l-24.9 0c-1.84,0 -2.77,0.92 -2.77,2.77l0 2.77 29.04 0c7.84,0 11.76,-3.92 11.76,-11.76 0,-7.84 -3.92,-11.76 -11.76,-11.76z"/>
  <path class="fil0" d="M27.33 0.67l-6.92 0 -19.36 41.49 4.09 0c1.84,0 3.23,-0.92 4.09,-2.77 6.39,-13.68 6.37,-13.74 14.64,-31.41 8.84,18.88 7.78,16.72 14.64,31.41 0.86,1.84 2.25,2.77 4.09,2.77l4.09 0 -19.36 -41.49z"/>
  <path class="fil1" d="M27.33 26.8c-0.99,-0.99 -2.36,-1.61 -3.88,-1.61 -1.51,0 -2.89,0.61 -3.88,1.61 -0.99,0.99 -1.61,2.36 -1.61,3.88 0,1.52 0.61,2.89 1.6,3.88 0.99,0.99 2.37,1.61 3.88,1.61 1.51,0 2.89,-0.61 3.88,-1.61 0.99,-0.99 1.61,-2.36 1.61,-3.88 0,-1.51 -0.61,-2.89 -1.61,-3.88z"/>
  <path class="fil1" d="M307.98 19.4l16.29 -19.4 7.9 0 0 42.83 -4.82 0c-1.11,0 -1.96,-0.3 -2.55,-0.89 -0.59,-0.59 -0.89,-1.44 -0.89,-2.55l0 -28.3 -15.93 18.97 -15.93 -18.97 0 28.3c0,1.11 -0.3,1.96 -0.89,2.55 -0.59,0.59 -1.44,0.89 -2.55,0.89l-4.82 0 0 -42.83 7.9 0 16.29 19.4z"/>
  <path class="fil1" d="M324.88 1.34l-16.91 20.14 -16.91 -20.14 -5.94 0 0 40.15 3.48 0c0.74,0 1.27,-0.17 1.6,-0.5 0.33,-0.33 0.5,-0.86 0.5,-1.6l0 -31.98 17.27 20.56 17.27 -20.56 0 31.98c0,0.74 0.17,1.27 0.5,1.6 0.33,0.33 0.86,0.5 1.6,0.5l3.48 0 0 -40.15 -5.94 0z"/>
  <path class="fil1" d="M245.71 35.96l29.07 0c1.11,0 1.96,0.3 2.55,0.89 0.59,0.59 0.89,1.44 0.89,2.55l0 3.44 -40.76 0 0 -42.83 40.06 0 0 3.43c0,1.11 -0.3,1.96 -0.89,2.55 -0.59,0.59 -1.44,0.89 -2.55,0.89l-28.38 0 0 11.11 29.74 0 0 6.87 -29.74 0 0 11.11z"/>
  <path class="fil1" d="M274.78 37.3l-30.4 0 0 -13.79 29.74 0 0 -4.19 -29.74 0 0 -13.79 29.71 0c0.74,0 1.27,-0.16 1.6,-0.49 0.33,-0.33 0.5,-0.87 0.5,-1.6l0 -2.1 -37.39 0 0 40.15 38.08 0 0 -2.1c0,-0.74 -0.17,-1.27 -0.5,-1.6 -0.33,-0.33 -0.86,-0.5 -1.6,-0.5z"/>
  <path class="fil1" d="M189.4 3.43l0 -3.43 44.21 0 0 3.43c0,1.11 -0.3,1.96 -0.89,2.55 -0.59,0.59 -1.44,0.89 -2.55,0.89l-14.55 0 0 35.96 -8.25 0 0 -35.96 -14.54 0c-1.1,0 -1.95,-0.3 -2.55,-0.89 -0.59,-0.6 -0.89,-1.44 -0.89,-2.55z"/>
  <path class="fil1" d="M190.74 1.34l0 2.1c0,0.74 0.16,1.27 0.49,1.6 0.33,0.33 0.87,0.5 1.6,0.5l15.88 0 0 35.96 5.58 0 0 -35.96 15.88 0c0.74,0 1.27,-0.16 1.6,-0.49 0.33,-0.33 0.5,-0.87 0.5,-1.6l0 -2.1 -41.54 0z"/>
  <path class="fil1" d="M157.68 17.98l16.6 0c4.1,0 7.2,1.05 9.29,3.14 2.09,2.09 3.14,5.19 3.14,9.29 0,4.1 -1.05,7.2 -3.14,9.29 -2.09,2.09 -5.19,3.14 -9.29,3.14l-29.71 0 0 -3.44c0,-1.11 0.3,-1.96 0.89,-2.55 0.59,-0.59 1.44,-0.89 2.55,-0.89l24.9 0c1.89,0 3.29,-0.45 4.19,-1.36 0.91,-0.91 1.36,-2.31 1.36,-4.2 0,-3.7 -1.85,-5.55 -5.55,-5.55l-16.6 0c-4.1,0 -7.2,-1.05 -9.29,-3.14 -2.09,-2.09 -3.14,-5.19 -3.14,-9.29 0,-4.1 1.05,-7.2 3.14,-9.29 2.09,-2.09 5.19,-3.14 9.29,-3.14l29.02 0 0 3.43c0,1.11 -0.3,1.96 -0.89,2.55 -0.59,0.59 -1.44,0.89 -2.55,0.89l-24.2 0c-1.89,0 -3.29,0.45 -4.19,1.36 -0.91,0.91 -1.36,2.31 -1.36,4.2 0,3.7 1.85,5.55 5.55,5.55z"/>
  <path class="fil1" d="M174.28 19.32l-16.6 0c-4.59,0 -6.89,-2.3 -6.89,-6.89 0,-2.26 0.58,-3.97 1.75,-5.14 1.17,-1.17 2.88,-1.75 5.14,-1.75l24.2 0c0.74,0 1.27,-0.17 1.6,-0.5 0.33,-0.33 0.5,-0.86 0.5,-1.6l0 -2.1 -27.68 0c-3.73,0 -6.52,0.92 -8.34,2.74 -1.83,1.83 -2.74,4.61 -2.74,8.34 0,3.73 0.92,6.52 2.74,8.34 1.83,1.83 4.61,2.74 8.34,2.74l16.6 0c4.59,0 6.89,2.3 6.89,6.89 0,2.26 -0.58,3.97 -1.75,5.14 -1.17,1.17 -2.89,1.75 -5.14,1.75l-24.9 0c-0.74,0 -1.27,0.17 -1.6,0.5 -0.33,0.33 -0.5,0.86 -0.5,1.6l0 2.1 28.38 0c3.73,0 6.52,-0.92 8.34,-2.74 1.83,-1.83 2.74,-4.61 2.74,-8.34 0,-3.73 -0.92,-6.52 -2.74,-8.34 -1.83,-1.83 -4.61,-2.74 -8.34,-2.74z"/>
  <path class="fil1" d="M130.23 3.03c1.52,-2.02 3.25,-3.03 5.32,-3.03l6.27 0 -19.32 26.47 0 16.36 -8.25 0 0 -16.36 -19.31 -26.47 6.27 0c1.04,0 2,0.26 2.9,0.78 0.87,0.51 1.67,1.26 2.42,2.25l11.86 16.27 11.86 -16.27z"/>
  <path class="fil1" d="M135.55 1.34c-1.62,0 -3,0.83 -4.25,2.5l-12.92 17.73 -12.92 -17.73c-0.64,-0.85 -1.31,-1.48 -2.02,-1.9 -0.69,-0.4 -1.43,-0.6 -2.23,-0.6l-3.64 0 18.03 24.7 0 15.45 5.58 0 0 -15.45 18.03 -24.7 -3.64 0z"/>
  <path class="fil1" d="M63.86 17.98l16.6 0c4.1,0 7.2,1.05 9.29,3.14 2.09,2.09 3.14,5.19 3.14,9.29 0,4.1 -1.05,7.2 -3.14,9.29 -2.09,2.09 -5.19,3.14 -9.29,3.14l-29.71 0 0 -3.44c0,-1.11 0.3,-1.96 0.89,-2.55 0.59,-0.59 1.44,-0.89 2.55,-0.89l24.9 0c3.7,0 5.55,-1.85 5.55,-5.55 0,-3.7 -1.85,-5.55 -5.55,-5.55l-16.6 0c-8.28,0 -12.42,-4.14 -12.42,-12.43 0,-4.1 1.05,-7.2 3.14,-9.29 2.09,-2.09 5.19,-3.14 9.29,-3.14l29.02 0 0 3.43c0,1.11 -0.3,1.96 -0.89,2.55 -0.59,0.59 -1.44,0.89 -2.55,0.89l-24.2 0c-3.7,0 -5.55,1.85 -5.55,5.55 0,3.7 1.85,5.55 5.55,5.55z"/>
  <path class="fil1" d="M80.46 19.32l-16.6 0c-4.59,0 -6.89,-2.3 -6.89,-6.89 0,-4.59 2.3,-6.89 6.89,-6.89l24.2 0c0.74,0 1.27,-0.16 1.6,-0.49 0.33,-0.33 0.5,-0.87 0.5,-1.6l0 -2.1 -27.68 0c-3.74,0 -6.52,0.91 -8.34,2.74 -1.83,1.83 -2.74,4.61 -2.74,8.35 0,7.39 3.7,11.09 11.09,11.09l16.6 0c4.59,0 6.89,2.3 6.89,6.89 0,4.59 -2.3,6.89 -6.89,6.89l-24.9 0c-0.74,0 -1.27,0.17 -1.6,0.5 -0.33,0.33 -0.5,0.86 -0.5,1.6l0 2.1 28.38 0c3.73,0 6.52,-0.92 8.34,-2.74 1.83,-1.83 2.74,-4.61 2.74,-8.34 0,-3.73 -0.92,-6.52 -2.74,-8.34 -1.83,-1.83 -4.61,-2.74 -8.34,-2.74z"/>
  <path class="fil1" d="M20.41 0l7.34 0c6.65,14.28 13.32,28.56 19.99,42.83l-5.14 0c-1.06,0 -1.99,-0.27 -2.79,-0.81 -0.78,-0.53 -1.42,-1.31 -1.9,-2.34 -3.09,-6.62 -4.45,-9.55 -5.71,-12.27 -1.97,-4.25 -3.77,-8.12 -8.32,-17.85 -4.29,9.16 -6.28,13.45 -8.41,18.04l-5.63 12.08c-0.48,1.03 -1.12,1.82 -1.9,2.34 -0.8,0.54 -1.73,0.81 -2.79,0.81l-5.14 0 19.99 -42.83 0.42 0z"/>
  <path class="fil1" d="M26.9 1.34l-6.07 0 -18.74 40.15 3.04 0c0.79,0 1.47,-0.19 2.04,-0.58 0.58,-0.39 1.07,-0.99 1.44,-1.8l5.62 -12.08c2.04,-4.38 3.94,-8.49 9.02,-19.33l0.6 -1.29 0.6 1.29c5.35,11.44 7.05,15.1 8.93,19.14 1.52,3.27 3.12,6.72 5.71,12.27 0.38,0.81 0.86,1.41 1.44,1.8 0.57,0.39 1.26,0.58 2.04,0.58l3.04 0 -18.74 -40.15z"/>
 </g>
</svg>
