<?xml version="1.0" encoding="UTF-8"?>
<!DOCTYPE svg PUBLIC "-//W3C//DTD SVG 1.1//EN" "http://www.w3.org/Graphics/SVG/1.1/DTD/svg11.dtd">
<!-- Creator: CorelDRAW -->
<svg xmlns="http://www.w3.org/2000/svg" xml:space="preserve" width="26.6041mm" height="5.6522mm" version="1.1" style="shape-rendering:geometricPrecision; text-rendering:geometricPrecision; image-rendering:optimizeQuality; fill-rule:evenodd; clip-rule:evenodd"
viewBox="0 0 1147.44 243.78"
 xmlns:xlink="http://www.w3.org/1999/xlink"
 xmlns:xodm="http://www.corel.com/coreldraw/odm/2003">
 <defs>
  <style type="text/css">
   <![CDATA[
    .fil0 {fill:#F1EDE3;fill-rule:nonzero}
    .fil1 {fill:#F5B501;fill-rule:nonzero}
   ]]>
  </style>
 </defs>
 <g id="Слой_x0020_1">
  <metadata id="CorelCorpID_0Corel-Layer"/>
  <path class="fil0" d="M424.5 2.79l0 236.42 26.3 0 0 -211.08 8.4 0c2.76,0 4.96,0.14 6.61,0.55 1.65,0.28 3.03,1.1 3.86,2.2 0.96,1.1 1.51,2.48 2.06,4.27 0.41,1.65 0.69,3.85 0.69,6.61l0 51.36c0,3.44 -0.14,6.2 -0.55,8.26 -0.28,2.2 -0.96,3.72 -1.79,4.96 -0.96,1.1 -2.2,1.93 -3.99,2.34 -1.79,0.41 -3.99,0.69 -6.75,0.69l-12.12 0 0 25.34 12.81 0c2.48,0 4.54,0.14 6.06,0.55 1.51,0.28 2.89,0.97 3.86,2.07 0.97,0.97 1.65,2.48 2.07,4.41 0.28,1.92 0.55,4.27 0.55,6.88l0 90.88 26.3 0 0 -86.2c0,-6.47 -0.55,-12.12 -1.51,-16.52 -0.96,-4.54 -2.75,-7.98 -5.37,-10.6 -2.61,-2.61 -6.06,-4.4 -10.46,-5.37 -4.4,-0.97 -9.92,-1.38 -16.39,-1.24l0 3.03c6.33,0 11.71,-0.41 16.25,-1.38 4.55,-0.97 7.99,-2.62 10.6,-5.09 2.62,-2.48 4.4,-5.92 5.37,-10.47 0.96,-4.54 1.51,-10.05 1.51,-16.52l0 -47.23c0,-7.16 -0.69,-13.22 -2.07,-18.04 -1.38,-4.82 -3.58,-8.81 -6.61,-11.98 -3.03,-3.17 -6.89,-5.37 -11.71,-6.75 -4.68,-1.38 -10.74,-2.07 -17.9,-2.07l-36.22 0 0.14 -0.28zm-72.7 158.07l0 24.37 40.21 0 0 -24.37 -40.21 0zm0.96 -158.07l-21.34 236.42 25.33 0 17.21 -228.02 -3.99 0 16.94 228.02 25.61 0 -21.34 -236.42 -38.56 0 0.14 0zm-97.34 0l0 236.42 26.3 0 0 -211.08 8.4 0c2.48,0 4.54,0.14 6.19,0.55 1.65,0.28 3.03,0.96 4.27,2.07 1.1,0.96 1.79,2.48 2.2,4.27 0.28,1.79 0.55,3.99 0.55,6.75l0 54.39c0,2.89 -0.14,5.37 -0.55,7.44 -0.28,2.06 -0.97,3.58 -2.07,4.68 -0.96,1.1 -2.34,1.93 -3.99,2.34 -1.65,0.41 -3.86,0.69 -6.61,0.69l-12.53 0 0 25.34 15.56 0c6.75,0 12.4,-0.69 17.08,-2.2 4.68,-1.51 8.4,-3.72 11.15,-6.75 2.76,-3.03 4.96,-7.03 6.2,-11.98 1.38,-4.96 2.06,-11.02 2.06,-18.18l0 -56.45c0,-7.03 -0.69,-12.94 -2.06,-17.77 -1.38,-4.82 -3.44,-8.81 -6.47,-11.84 -2.89,-3.03 -6.75,-5.24 -11.29,-6.61 -4.68,-1.38 -10.33,-2.07 -17.07,-2.07l-37.45 0 0.14 0zm-78.07 0l0.28 236.42 64.16 0 0 -25.33 -37.86 0 0 -211.08 -26.71 0 0.13 0zm-90.88 0l0 199.93c0,6.47 0.69,12.12 2.2,16.94 1.51,4.68 3.72,8.67 6.88,11.84 3.17,3.17 7.02,5.51 11.43,7.16 4.54,1.51 9.91,2.34 16.25,2.34l0.69 0c6.06,0 11.43,-0.83 16.11,-2.34 4.68,-1.51 8.4,-3.99 11.43,-7.16 3.03,-3.17 5.37,-7.16 6.88,-11.84 1.51,-4.68 2.34,-10.33 2.34,-16.94l0 -199.93 -26.3 0 0 200.34c0,2.07 -0.28,3.86 -0.69,5.37 -0.41,1.51 -1.1,2.89 -2.07,3.86 -0.96,0.96 -1.93,1.79 -3.17,2.34 -1.24,0.55 -2.76,0.83 -4.55,0.83l-0.69 0c-1.79,0 -3.44,-0.28 -4.68,-0.83 -1.38,-0.55 -2.48,-1.38 -3.17,-2.34 -0.83,-0.97 -1.38,-2.34 -1.79,-3.86 -0.41,-1.51 -0.69,-3.44 -0.69,-5.37l0 -200.34 -26.3 0 -0.13 0zm-62.1 20.24l0 216.18 26.02 0 0.28 -216.18 -26.3 0zm-24.37 -20.24l0.28 25.34 74.35 0 0 -25.34 -74.63 0z"/>
  <path class="fil1" d="M545.81 1.72l0 240.35 68.76 0 0 -25.75 -41.94 0 0 -81.71 35.06 0 0 -25.75 -35.06 0 0 -81.37 40.22 0 0 -25.75 -67.04 0zm80.79 0l21.31 113.31 -23.04 127.04 26.13 0 16.85 -96.14 16.5 96.14 26.47 0 -23.38 -127.04 21.66 -113.31 -25.79 0 -15.47 86.53 -15.82 -86.53 -25.44 0zm96.26 0l0 240.35 26.81 0 0 -104.38 12.03 0c26.81,0 36.79,-10.99 36.79,-39.49l0 -57.68c0,-28.16 -9.97,-38.8 -37.13,-38.8l-38.5 0zm26.81 110.22l0 -84.47 8.94 0c9.97,0 13.06,3.09 13.06,13.73l0 55.28c0,12.36 -2.75,15.45 -13.06,15.45l-8.94 0zm62.57 -110.22l0 240.35 26.81 0 0 -106.44 9.29 0c10.31,0 12.72,2.74 12.72,14.07l0 92.36 26.81 0 0 -87.55c0,-19.91 -3.78,-29.19 -16.85,-32.62 13.06,-3.43 16.85,-12.36 16.85,-32.62l0 -48.07c0,-28.84 -9.97,-39.49 -38.5,-39.49l-37.13 0zm26.81 108.16l0 -82.4 8.94 0c9.97,0 13.06,3.09 13.06,13.73l0 52.19c0,13.73 -2.41,16.48 -13.06,16.48l-8.94 0zm66.01 -108.16l0 240.35 68.76 0 0 -25.75 -41.95 0 0 -81.71 35.07 0 0 -25.75 -35.07 0 0 -81.37 40.23 0 0 -25.75 -67.04 0zm116.54 -1.72c-24.41,0 -36.44,12.36 -36.44,38.45l0 27.12c0,24.04 4.81,36.05 20.97,54.94l14.78 17.51c8.94,10.3 12.03,20.26 12.03,39.14l0 28.16c0,8.58 -3.78,12.7 -11,12.7l-0.69 0c-6.88,0 -10.66,-4.12 -10.66,-12.7l0 -43.95 -26.47 0.69 0 42.92c0,25.75 12.72,38.8 37.47,38.8l0.69 0c25.1,0 37.48,-13.05 37.48,-38.8l0 -31.59c0,-25.06 -4.47,-37.08 -19.94,-54.59l-16.5 -19.57c-9.63,-10.99 -11.68,-18.2 -11.68,-36.39l0 -24.72c0,-8.58 3.09,-12.36 9.97,-12.36l0.69 0c6.88,0 9.97,3.78 9.97,12.36l0 40.86 26.47 -0.69 0 -39.83c0,-26.09 -11.69,-38.45 -36.44,-38.45l-0.69 0zm87.67 0c-24.41,0 -36.44,12.36 -36.44,38.45l0 27.12c0,24.04 4.81,36.05 20.97,54.94l14.78 17.51c8.94,10.3 12.03,20.26 12.03,39.14l0 28.16c0,8.58 -3.78,12.7 -11,12.7l-0.69 0c-6.88,0 -10.66,-4.12 -10.66,-12.7l0 -43.95 -26.47 0.69 0 42.92c0,25.75 12.71,38.8 37.47,38.8l0.69 0c25.1,0 37.48,-13.05 37.48,-38.8l0 -31.59c0,-25.06 -4.47,-37.08 -19.94,-54.59l-16.5 -19.57c-9.63,-10.99 -11.68,-18.2 -11.68,-36.39l0 -24.72c0,-8.58 3.09,-12.36 9.97,-12.36l0.69 0c6.88,0 9.97,3.78 9.97,12.36l0 40.86 26.47 -0.69 0 -39.83c0,-26.09 -11.69,-38.45 -36.44,-38.45l-0.69 0z"/>
 </g>
</svg>
