<?xml version="1.0" encoding="UTF-8"?>
<!DOCTYPE svg PUBLIC "-//W3C//DTD SVG 1.1//EN" "http://www.w3.org/Graphics/SVG/1.1/DTD/svg11.dtd">
<!-- Creator: CorelDRAW -->
<svg xmlns="http://www.w3.org/2000/svg" xml:space="preserve" width="25.2983mm" height="16.0721mm" version="1.1" style="shape-rendering:geometricPrecision; text-rendering:geometricPrecision; image-rendering:optimizeQuality; fill-rule:evenodd; clip-rule:evenodd"
viewBox="0 0 36.51 23.19"
 xmlns:xlink="http://www.w3.org/1999/xlink"
 xmlns:xodm="http://www.corel.com/coreldraw/odm/2003">
 <defs>
  <style type="text/css">
   <![CDATA[
    .fil1 {fill:#F1EDE3;fill-rule:nonzero}
    .fil0 {fill:#F5B501;fill-rule:nonzero}
   ]]>
  </style>
 </defs>
 <g id="Слой_x0020_1">
  <metadata id="CorelCorpID_0Corel-Layer"/>
  <path class="fil0" d="M5.71 18.84l0 0.74 -3.13 0 0 1.04 2.82 0 0 0.74 -2.82 0 0 1.04 3.19 0 0 0.74 -3.98 0 0 -4.29 3.92 0zm1.59 0l1.26 1.54 1.26 -1.54 1.01 0 -1.73 2.08 1.85 2.21 -1.02 0 -1.37 -1.65 -1.37 1.65 -1.02 0 1.85 -2.21 -1.73 -2.08 1.01 0zm6.9 0c0.59,0 1.01,0.1 1.27,0.31 0.26,0.21 0.39,0.54 0.39,1l0 0.01c0,0.46 -0.13,0.8 -0.39,1 -0.26,0.21 -0.68,0.31 -1.27,0.31l-1.9 0 0 1.65 -0.8 0 0 -4.29 2.7 0zm-0.05 1.9c0.17,0 0.32,-0.01 0.43,-0.03 0.12,-0.02 0.21,-0.05 0.28,-0.09 0.07,-0.04 0.12,-0.1 0.15,-0.18 0.03,-0.07 0.05,-0.17 0.05,-0.28l0 -0.01c0,-0.11 -0.02,-0.2 -0.05,-0.28 -0.03,-0.07 -0.08,-0.13 -0.15,-0.18 -0.07,-0.04 -0.16,-0.08 -0.28,-0.09 -0.12,-0.02 -0.26,-0.03 -0.43,-0.03l-1.85 0 0 1.16 1.85 0zm5.47 -1.9c0.47,0 0.82,0.09 1.03,0.27 0.21,0.18 0.32,0.48 0.32,0.89l0 0.01c0,0.31 -0.05,0.54 -0.15,0.7 -0.1,0.16 -0.27,0.26 -0.5,0.3 0.24,0.04 0.41,0.13 0.51,0.27 0.1,0.14 0.14,0.35 0.14,0.63l0 1.23 -0.8 0 0 -1.1c0,-0.12 -0.01,-0.22 -0.03,-0.3 -0.02,-0.08 -0.06,-0.14 -0.11,-0.19 -0.05,-0.05 -0.12,-0.08 -0.21,-0.1 -0.09,-0.02 -0.2,-0.03 -0.33,-0.03l-2.08 0 0 1.72 -0.8 0 0 -4.29 3 0zm-0.12 1.84c0.25,0 0.43,-0.04 0.53,-0.12 0.1,-0.08 0.15,-0.22 0.15,-0.43l0 -0.01c0,-0.2 -0.05,-0.35 -0.15,-0.43 -0.1,-0.08 -0.27,-0.12 -0.53,-0.12l-2.08 0 0 1.1 2.08 0zm6.28 -1.84l0 0.74 -3.13 0 0 1.04 2.82 0 0 0.74 -2.82 0 0 1.04 3.19 0 0 0.74 -3.98 0 0 -4.29 3.92 0zm3.01 -0.06c0.4,0 0.74,0.02 1.01,0.06 0.27,0.04 0.49,0.12 0.66,0.23 0.17,0.11 0.3,0.26 0.39,0.44 0.09,0.19 0.16,0.42 0.2,0.71l-0.77 0.02c-0.02,-0.15 -0.06,-0.27 -0.11,-0.37 -0.05,-0.09 -0.13,-0.17 -0.24,-0.22 -0.11,-0.06 -0.26,-0.09 -0.44,-0.11 -0.18,-0.02 -0.42,-0.03 -0.7,-0.03l-0.01 0c-0.29,0 -0.54,0.01 -0.73,0.02 -0.19,0.02 -0.34,0.04 -0.46,0.09 -0.11,0.04 -0.19,0.1 -0.24,0.16 -0.05,0.07 -0.07,0.15 -0.07,0.26 0,0.08 0.01,0.15 0.04,0.21 0.03,0.06 0.08,0.1 0.14,0.14 0.07,0.04 0.16,0.07 0.27,0.09 0.11,0.02 0.25,0.04 0.43,0.06l1.46 0.13c0.29,0.02 0.53,0.07 0.73,0.12 0.2,0.06 0.35,0.13 0.48,0.23 0.12,0.1 0.21,0.22 0.26,0.36 0.05,0.14 0.08,0.31 0.08,0.51 0,0.25 -0.04,0.45 -0.12,0.62 -0.08,0.17 -0.21,0.3 -0.4,0.4 -0.19,0.1 -0.43,0.17 -0.74,0.21 -0.3,0.04 -0.68,0.06 -1.14,0.06l-0.01 0c-0.45,0 -0.83,-0.02 -1.12,-0.06 -0.3,-0.04 -0.53,-0.12 -0.71,-0.23 -0.18,-0.11 -0.31,-0.26 -0.39,-0.44 -0.08,-0.19 -0.13,-0.43 -0.16,-0.72l0.8 -0.02c0.02,0.16 0.05,0.29 0.09,0.38 0.05,0.1 0.13,0.17 0.24,0.22 0.11,0.05 0.27,0.09 0.47,0.1 0.2,0.02 0.46,0.03 0.78,0.03l0.01 0c0.31,0 0.58,-0.01 0.78,-0.02 0.21,-0.02 0.37,-0.04 0.49,-0.09 0.12,-0.04 0.2,-0.1 0.25,-0.17 0.05,-0.07 0.07,-0.16 0.07,-0.27 0,-0.08 -0.01,-0.15 -0.04,-0.2 -0.02,-0.05 -0.07,-0.1 -0.13,-0.13 -0.07,-0.03 -0.15,-0.06 -0.26,-0.08 -0.11,-0.02 -0.25,-0.04 -0.42,-0.06l-1.47 -0.13c-0.29,-0.02 -0.53,-0.07 -0.73,-0.13 -0.2,-0.06 -0.36,-0.14 -0.49,-0.24 -0.12,-0.1 -0.21,-0.23 -0.27,-0.37 -0.06,-0.15 -0.08,-0.32 -0.08,-0.51 0,-0.24 0.04,-0.44 0.12,-0.6 0.08,-0.16 0.21,-0.29 0.39,-0.39 0.18,-0.1 0.42,-0.17 0.71,-0.22 0.29,-0.04 0.65,-0.07 1.08,-0.07l0.01 0zm5.33 0c0.4,0 0.74,0.02 1.01,0.06 0.27,0.04 0.49,0.12 0.66,0.23 0.17,0.11 0.3,0.26 0.39,0.44 0.09,0.19 0.16,0.42 0.2,0.71l-0.77 0.02c-0.02,-0.15 -0.06,-0.27 -0.11,-0.37 -0.05,-0.09 -0.13,-0.17 -0.24,-0.22 -0.11,-0.06 -0.26,-0.09 -0.44,-0.11 -0.18,-0.02 -0.42,-0.03 -0.7,-0.03l-0.01 0c-0.29,0 -0.54,0.01 -0.73,0.02 -0.19,0.02 -0.34,0.04 -0.46,0.09 -0.11,0.04 -0.19,0.1 -0.24,0.16 -0.05,0.07 -0.07,0.15 -0.07,0.26 0,0.08 0.01,0.15 0.04,0.21 0.03,0.06 0.08,0.1 0.14,0.14 0.07,0.04 0.16,0.07 0.27,0.09 0.11,0.02 0.25,0.04 0.43,0.06l1.46 0.13c0.29,0.02 0.53,0.07 0.73,0.12 0.2,0.06 0.35,0.13 0.48,0.23 0.12,0.1 0.21,0.22 0.26,0.36 0.05,0.14 0.08,0.31 0.08,0.51 0,0.25 -0.04,0.45 -0.12,0.62 -0.08,0.17 -0.21,0.3 -0.4,0.4 -0.19,0.1 -0.43,0.17 -0.74,0.21 -0.3,0.04 -0.68,0.06 -1.14,0.06l-0.01 0c-0.45,0 -0.83,-0.02 -1.12,-0.06 -0.3,-0.04 -0.53,-0.12 -0.71,-0.23 -0.18,-0.11 -0.31,-0.26 -0.39,-0.44 -0.08,-0.19 -0.13,-0.43 -0.16,-0.72l0.8 -0.02c0.02,0.16 0.05,0.29 0.09,0.38 0.05,0.1 0.13,0.17 0.24,0.22 0.11,0.05 0.27,0.09 0.47,0.1 0.2,0.02 0.46,0.03 0.78,0.03l0.01 0c0.31,0 0.58,-0.01 0.78,-0.02 0.21,-0.02 0.37,-0.04 0.49,-0.09 0.12,-0.04 0.2,-0.1 0.25,-0.17 0.05,-0.07 0.07,-0.16 0.07,-0.27 0,-0.08 -0.01,-0.15 -0.04,-0.2 -0.02,-0.05 -0.07,-0.1 -0.13,-0.13 -0.07,-0.03 -0.15,-0.06 -0.26,-0.08 -0.11,-0.02 -0.25,-0.04 -0.42,-0.06l-1.47 -0.13c-0.29,-0.02 -0.53,-0.07 -0.73,-0.13 -0.2,-0.06 -0.36,-0.14 -0.49,-0.24 -0.12,-0.1 -0.21,-0.23 -0.27,-0.37 -0.06,-0.15 -0.08,-0.32 -0.08,-0.51 0,-0.24 0.04,-0.44 0.12,-0.6 0.08,-0.16 0.21,-0.29 0.39,-0.39 0.18,-0.1 0.42,-0.17 0.71,-0.22 0.29,-0.04 0.65,-0.07 1.08,-0.07l0.01 0z"/>
  <path class="fil1" d="M30.82 0l0 17.17 1.91 0 0 -15.33 0.61 0c0.2,0 0.36,0.01 0.48,0.04 0.12,0.02 0.22,0.08 0.28,0.16 0.07,0.08 0.11,0.18 0.15,0.31 0.03,0.12 0.05,0.28 0.05,0.48l0 3.73c0,0.25 -0.01,0.45 -0.04,0.6 -0.02,0.16 -0.07,0.27 -0.13,0.36 -0.07,0.08 -0.16,0.14 -0.29,0.17 -0.13,0.03 -0.29,0.05 -0.49,0.05l-0.88 0 0 1.84 0.93 0c0.18,0 0.33,0.01 0.44,0.04 0.11,0.02 0.21,0.07 0.28,0.15 0.07,0.07 0.12,0.18 0.15,0.32 0.02,0.14 0.04,0.31 0.04,0.5l0 6.6 1.91 0 0 -6.26c0,-0.47 -0.04,-0.88 -0.11,-1.2 -0.07,-0.33 -0.2,-0.58 -0.39,-0.77 -0.19,-0.19 -0.44,-0.32 -0.76,-0.39 -0.32,-0.07 -0.72,-0.1 -1.19,-0.09l0 0.22c0.46,0 0.85,-0.03 1.18,-0.1 0.33,-0.07 0.58,-0.19 0.77,-0.37 0.19,-0.18 0.32,-0.43 0.39,-0.76 0.07,-0.33 0.11,-0.73 0.11,-1.2l0 -3.43c0,-0.52 -0.05,-0.96 -0.15,-1.31 -0.1,-0.35 -0.26,-0.64 -0.48,-0.87 -0.22,-0.23 -0.5,-0.39 -0.85,-0.49 -0.34,-0.1 -0.78,-0.15 -1.3,-0.15l-2.63 0zm-5.28 11.48l0 1.77 2.92 0 0 -1.77 -2.92 0zm0.07 -11.48l-1.55 17.17 1.84 0 1.25 -16.56 -0.29 0 1.23 16.56 1.86 0 -1.55 -17.17 -2.8 0zm-7.07 0l0 17.17 1.91 0 0 -15.33 0.61 0c0.18,0 0.33,0.01 0.45,0.04 0.12,0.02 0.22,0.07 0.31,0.15 0.08,0.07 0.13,0.18 0.16,0.31 0.02,0.13 0.04,0.29 0.04,0.49l0 3.95c0,0.21 -0.01,0.39 -0.04,0.54 -0.02,0.15 -0.07,0.26 -0.15,0.34 -0.07,0.08 -0.17,0.14 -0.29,0.17 -0.12,0.03 -0.28,0.05 -0.48,0.05l-0.91 0 0 1.84 1.13 0c0.49,0 0.9,-0.05 1.24,-0.16 0.34,-0.11 0.61,-0.27 0.81,-0.49 0.2,-0.22 0.36,-0.51 0.45,-0.87 0.1,-0.36 0.15,-0.8 0.15,-1.32l0 -4.1c0,-0.51 -0.05,-0.94 -0.15,-1.29 -0.1,-0.35 -0.25,-0.64 -0.47,-0.86 -0.21,-0.22 -0.49,-0.38 -0.82,-0.48 -0.34,-0.1 -0.75,-0.15 -1.24,-0.15l-2.72 0zm-5.67 0l0.02 17.17 4.66 0 0 -1.84 -2.75 0 0 -15.33 -1.94 0zm-6.6 0l0 14.52c0,0.47 0.05,0.88 0.16,1.23 0.11,0.34 0.27,0.63 0.5,0.86 0.23,0.23 0.51,0.4 0.83,0.52 0.33,0.11 0.72,0.17 1.18,0.17l0.05 0c0.44,0 0.83,-0.06 1.17,-0.17 0.34,-0.11 0.61,-0.29 0.83,-0.52 0.22,-0.23 0.39,-0.52 0.5,-0.86 0.11,-0.34 0.17,-0.75 0.17,-1.23l0 -14.52 -1.91 0 0 14.55c0,0.15 -0.02,0.28 -0.05,0.39 -0.03,0.11 -0.08,0.21 -0.15,0.28 -0.07,0.07 -0.14,0.13 -0.23,0.17 -0.09,0.04 -0.2,0.06 -0.33,0.06l-0.05 0c-0.13,0 -0.25,-0.02 -0.34,-0.06 -0.1,-0.04 -0.18,-0.1 -0.23,-0.17 -0.06,-0.07 -0.1,-0.17 -0.13,-0.28 -0.03,-0.11 -0.05,-0.25 -0.05,-0.39l0 -14.55 -1.91 0zm-4.51 1.47l0 15.7 1.89 0 0.02 -15.7 -1.91 0zm-1.77 -1.47l0.02 1.84 5.4 0 0 -1.84 -5.42 0z"/>
 </g>
</svg>
