<?xml version="1.0" encoding="UTF-8"?>
<svg width="120" height="120" viewBox="0 0 120 120" fill="none" xmlns="http://www.w3.org/2000/svg">
  <rect width="120" height="120" rx="60" fill="#2563eb" fill-opacity="0.1"/>
  <path d="M60 30C42.32 30 28 44.32 28 62C28 79.68 42.32 94 60 94C77.68 94 92 79.68 92 62C92 44.32 77.68 30 60 30ZM74.56 48.4C74.26 51.74 73.04 59.26 72.38 62.79C72.1 64.29 71.54 64.79 71 64.85C69.84 64.95 68.96 64.13 67.84 63.4C66.08 62.24 65.08 61.52 63.36 60.4C61.38 59.1 62.66 58.37 63.8 57.2C64.1 56.95 69.22 52.76 69.32 52.35C69.34 52.29 69.34 52.07 69.18 51.95C69.02 51.83 68.8 51.87 68.64 51.91C68.42 51.95 64.76 54.37 57.76 59.15C56.72 59.87 55.78 60.21 54.94 60.19C53.94 60.17 52.06 59.67 50.72 59.25C49.1 58.73 47.82 58.45 47.92 57.55C47.98 57.11 48.84 56.65 50.52 56.19C60.7 51.75 67.1 48.83 70.5 47.39C71.96 46.79 74.12 45.87 74.92 45.85C75.18 45.85 75.74 45.91 76.12 46.21C76.46 46.49 76.56 46.87 76.6 47.07C76.64 47.35 76.64 47.63 76.62 47.89Z" fill="#2563eb"/>
</svg>
